<svg xmlns="http://www.w3.org/2000/svg" viewBox="0 0 64 64" role="img" aria-label="Google Maps">
  <path d="M32 4c-10.5 0-19 8.6-19 19.1 0 12.5 16.1 32.6 17.4 34.3.9 1.1 2.6 1.1 3.5 0 1.3-1.7 17.4-21.8 17.4-34.3C51 12.6 42.5 4 32 4z" fill="#ea4335"/>
  <path d="M32 4c-10.5 0-19 8.6-19 19.1 0 3.8 1.5 8.4 3.8 13l15.2-9.6V4z" fill="#fbbc05"/>
  <path d="M32 4v22.5l15.2 9.6c2.3-4.6 3.8-9.2 3.8-13C51 12.6 42.5 4 32 4z" fill="#34a853"/>
  <circle cx="32" cy="23.5" r="9.3" fill="#fff"/>
  <circle cx="32" cy="23.5" r="5.5" fill="#4285f4"/>
</svg>
