<svg xmlns="http://www.w3.org/2000/svg" viewBox="0 0 64 64" role="img" aria-label="Waze">
  <path d="M13 34.5c0-12 9.7-21.7 21.7-21.7 10.5 0 19.3 7.4 21.4 17.3 1.6 7.7-1.4 15.1-7.4 19.8-2.9 2.2-6.6 3.6-10.4 3.6H24.8c-6.5 0-11.8-5.3-11.8-11.8 0-2.7.9-5.2 2.5-7.2-.3 0-.5 0-.8 0-1 0-1.7.8-1.7 1.8z" fill="#33c6f4" stroke="#263238" stroke-width="2.3" stroke-linejoin="round"/>
  <circle cx="24.5" cy="39.8" r="3.2" fill="#263238"/>
  <circle cx="39.2" cy="39.8" r="3.2" fill="#263238"/>
  <path d="M24 47.2c2 2 4.8 3.2 7.8 3.2 3 0 5.8-1.2 7.8-3.2" fill="none" stroke="#263238" stroke-width="2.3" stroke-linecap="round"/>
  <path d="M9.8 41.2c-2.9 0-5.3 2.4-5.3 5.3 0 2.9 2.4 5.3 5.3 5.3" fill="none" stroke="#263238" stroke-width="2.3" stroke-linecap="round"/>
  <path d="M52.8 44.2c3.2 0 5.7 2.5 5.7 5.7 0 3.2-2.5 5.7-5.7 5.7" fill="none" stroke="#263238" stroke-width="2.3" stroke-linecap="round"/>
</svg>
